<svg xmlns="http://www.w3.org/2000/svg" width="29.733" height="23.126" viewBox="0 0 29.733 23.126">
  <path id="burger-menu-right-svgrepo-com" d="M4.652,5a1.652,1.652,0,0,0,0,3.3h26.43a1.652,1.652,0,0,0,0-3.3ZM9.607,16.563a1.652,1.652,0,0,1,1.652-1.652H31.082a1.652,1.652,0,0,1,0,3.3H11.259A1.652,1.652,0,0,1,9.607,16.563Zm9.911,9.911a1.652,1.652,0,0,1,1.652-1.652h9.911a1.652,1.652,0,0,1,0,3.3H21.17A1.652,1.652,0,0,1,19.519,26.474Z" transform="translate(-3 -5)" fill="#fff" fill-rule="evenodd"/>
</svg>
