<svg xmlns="http://www.w3.org/2000/svg" xmlns:xlink="http://www.w3.org/1999/xlink" width="63.4" height="64.598" viewBox="0 0 63.4 64.598">
  <defs>
    <clipPath id="clip-path">
      <rect id="Rectangle_2" data-name="Rectangle 2" width="63.4" height="64.598" transform="translate(-3 -3)" fill="none" stroke="#fff" stroke-width="2"/>
    </clipPath>
  </defs>
  <g id="Group_2" data-name="Group 2" transform="translate(3 3)">
    <g id="Group_1" data-name="Group 1" clip-path="url(#clip-path)">
      <path id="Path_1" data-name="Path 1" d="M0,58.6,4.12,43.925A29.413,29.413,0,0,1,15.8,3.425C39.582-9.111,66.243,14.956,56.24,40.008,49.766,56.221,30.667,62.75,15.271,54.739ZM43.784,35.854a55.715,55.715,0,0,0-6.6-3.06C34.812,32.69,34.878,37,32,36.236c-2.691-.714-9.415-6.292-9.93-9.028-.187-.992,2.594-2.6,2.449-4.275a51.384,51.384,0,0,0-2.879-6.571c-2.877-3.058-6.663,2.229-7.04,5.119-.822,6.3,7.248,14.956,12.279,18.093,4.338,2.7,12.291,5.937,16.092.8.662-.9,1.695-3.612.814-4.517" transform="translate(0 0.001)" fill="#eee"/>
      <path id="Path_1_-_Outline" data-name="Path 1 - Outline" d="M-1.43,59.99,3.047,44.047A31.079,31.079,0,0,1-.53,32.5a30.581,30.581,0,0,1,1.1-11.977A29.835,29.835,0,0,1,15.338,2.541a29.193,29.193,0,0,1,28.2.178,31.292,31.292,0,0,1,10.73,9.8,29.4,29.4,0,0,1,2.9,27.863,29.5,29.5,0,0,1-11.33,13.862A30.217,30.217,0,0,1,37.889,57.9,30.85,30.85,0,0,1,21.9,58.29a31.366,31.366,0,0,1-6.754-2.49ZM29.3,1A28.262,28.262,0,0,0,2.491,21.089a28.786,28.786,0,0,0,2.5,22.35l.2.36L1.43,57.2,15.4,53.676l.338.176a29.253,29.253,0,0,0,13.444,3.307A27.914,27.914,0,0,0,55.311,39.637a27.5,27.5,0,0,0-2.7-26A28.653,28.653,0,0,0,29.3,1Zm7.859,43.094h0c-4.44,0-9.035-2.566-10.8-3.67a35.29,35.29,0,0,1-8.6-8.1c-2.17-2.852-4.649-7.069-4.14-10.968A9.855,9.855,0,0,1,15.575,17c1.268-1.649,2.742-2.557,4.151-2.557a3.607,3.607,0,0,1,2.642,1.237c.115.122.385.409,1.748,3.533,1.352,3.1,1.386,3.49,1.4,3.637.118,1.356-.889,2.477-1.7,3.378a7.035,7.035,0,0,0-.738.908c.218.793,1.321,2.422,3.8,4.6a18.128,18.128,0,0,0,5.378,3.541,1.548,1.548,0,0,0,.391.057c.518,0,.855-.431,1.45-1.346s1.425-2.19,3-2.19l.127,0c.2.009.538.023,3.755,1.528,3.176,1.485,3.4,1.712,3.516,1.834.653.671.8,1.751.424,3.207a8.286,8.286,0,0,1-1.15,2.6,7.415,7.415,0,0,1-3.014,2.428A8.945,8.945,0,0,1,37.155,44.094ZM19.727,16.441a3.852,3.852,0,0,0-2.566,1.776,8.007,8.007,0,0,0-1.57,3.394c-.328,2.516,1,5.889,3.749,9.5a33.67,33.67,0,0,0,8.068,7.617c1.267.79,5.713,3.366,9.747,3.367h0a5.794,5.794,0,0,0,5.011-2.317,6.263,6.263,0,0,0,.8-1.812,2.656,2.656,0,0,0,.119-1.38c-.821-.477-5.182-2.533-6.01-2.793-.43.019-.744.43-1.3,1.28-.619.952-1.467,2.255-3.127,2.255a3.538,3.538,0,0,1-.9-.124c-1.753-.465-4.427-2.43-6.184-3.971-1.509-1.323-4.1-3.842-4.473-5.839-.175-.929.513-1.695,1.241-2.506.506-.564,1.195-1.33,1.2-1.824a64.956,64.956,0,0,0-2.649-6.054A1.6,1.6,0,0,0,19.727,16.441Z" transform="translate(0 0.001)" fill="#fff"/>
    </g>
  </g>
</svg>
