<?xml version="1.0" encoding="utf-8"?>
<!-- Generator: Adobe Illustrator 25.4.1, SVG Export Plug-In . SVG Version: 6.00 Build 0)  -->
<svg version="1.1" id="Layer_1" xmlns="http://www.w3.org/2000/svg" xmlns:xlink="http://www.w3.org/1999/xlink" x="0px" y="0px"
	 width="512px" height="512px" viewBox="0 0 512 512" style="enable-background:new 0 0 512 512;" xml:space="preserve">
<style type="text/css">
	.st0{fill:#000111;}
</style>
<g>
	<path class="st0" d="M0,428c4.3-12.7,10-24.6,18.8-34.9c9.5-11.1,20.9-19.5,34.3-25.2c1.2-0.5,2.3-1,4-1.8
		c-12.9-11.4-19.6-25.2-18.7-42.1c0.8-13.8,6.5-25.3,16.8-34.6c19.7-17.6,50.2-16.5,68.7,2.4c17.7,18,21.6,51.1-4.4,74.3
		c15.6,6.1,28.7,15.3,39.3,28.1c24-26.7,27.1-29.2,60.6-44.3c-37.8-28.3-32.5-75.6-8.7-98.8c25.3-24.7,65.1-24.7,90.5,0
		c24.1,23.5,28.9,70.6-8.7,98.8c35.5,15.7,38.7,19.9,60.6,44.3c10.5-12.6,23.4-21.9,39.5-28.1c-14.1-12.4-20.6-27.4-18.4-45.6
		c1.5-12.7,7.4-23.4,17.2-31.8c19.3-16.6,48.4-15.8,66.9,2c10.8,10.4,15.9,23.3,15.4,38.2c-0.4,12.9-3.7,19.1-17.7,36.6
		c7.9,4.9,16.4,9.2,23.9,14.8c15.5,11.7,25.7,27.3,31.2,45.8c0.2,0.6,0.6,1.1,0.9,1.7c0,3.3,0,6.7,0,10
		c-7.6,17.9-13.8,21.9-33.5,21.9c-32.7,0-65.3,0-98,0c-1.9,0-3.9,0-6.4,0c0,5.8,0.2,10.9,0,16c-0.7,16.2-11.2,29.7-26.6,34.4
		c-1.5,0.5-3.1,1.1-4.6,1.7c-58,0-116,0-174,0c-0.2-0.2-0.4-0.6-0.7-0.6c-21.4-6.5-30.6-18.7-30.6-40.9c0-3.4,0-6.8,0-10.5
		c-2.8,0-4.8,0-6.8,0c-34.3,0-68.6,0-103,0c-13.2,0-22.9-7.2-27-19.7c-0.2-0.8-0.7-1.5-1-2.2C0,434.7,0,431.3,0,428z M255.6,496
		c26.8,0,53.7,0.1,80.5,0c11.3,0,21-7.7,21.7-18.1c0.7-9.9,1.2-20.1-0.2-29.9c-5.9-41.9-38.6-76.3-79.7-84.8
		c-42.9-8.9-86.1,9.2-109.1,45.6c-12.3,19.5-16.4,40.7-15.2,63.5c0.7,15.1,8.9,23.8,24.1,23.8C203.7,496,229.7,496,255.6,496z
		 M256.2,248.7c-26.6-0.1-48.1,21.2-48.2,47.7c-0.1,26.5,21.2,48.2,47.6,48.5c26.3,0.3,48.3-21.3,48.5-47.6
		C304.2,270.4,283,248.8,256.2,248.7z M374.6,443.8c-0.2,0,0.3,0.1,0.7,0.1c36.3,0,72.6,0.1,108.9,0c8.9,0,13.6-6.9,10.7-15.4
		c-7-20.8-20.5-35.9-40.5-45.1c-31.4-14.3-69.5-4.8-90.1,22.7c-1.1,1.4-1.8,4-1.3,5.6C366.6,422.2,370.6,432.6,374.6,443.8z
		 M137.5,443.9c3.7-10.7,7-20.8,10.9-30.6c1.2-3.1,1.2-5-0.9-7.5c-18.9-22.9-43.1-32.6-72.2-27.6c-28.1,4.8-47.4,21.5-57.5,48.3
		c-4.2,11.1,0.4,17.5,12.3,17.5c34.5,0,69,0,103.4,0C135.1,443.9,136.7,443.9,137.5,443.9z M389.9,326.8c0,18.8,15.1,34.1,33.8,34.1
		c18.6,0,34.1-15.4,34.1-34s-15.3-34-34-34C405,292.9,389.9,307.9,389.9,326.8z M122.1,327.1c0.1-18.9-14.9-34.1-33.7-34.1
		c-18.8-0.1-34.1,15-34.3,33.7c-0.1,18.4,15.3,34,33.9,34.2C106.7,361,122.1,345.8,122.1,327.1z"/>
	<path class="st0" d="M0,120c3.5-6.1,9-7.9,15.8-8c11.2-0.2,22.3-1,33.4-1.4c2.9-0.1,4.4-1.2,5.4-4c4.1-11.3,8.5-22.4,12.6-33.6
		c2-5.5,5.2-9.3,11.4-9.5c5.3-0.2,9,2.9,11.5,9.4c4.3,11.2,8.6,22.3,12.7,33.6c1.1,3,2.6,4.1,5.7,4.2c12,0.4,24,1.1,35.9,1.6
		c5.3,0.2,9.9,1.8,12.1,7.1c2.1,4.9,0.8,9.9-4,13.8c-9.5,7.8-19.1,15.6-28.9,23.1c-2.9,2.2-3.3,4.2-2.3,7.6
		c3.3,11.5,6.4,23.1,9.5,34.7c1.7,6.2,0.3,10.9-4,13.8c-4.9,3.3-9.7,2.4-14.4-0.8c-10.1-6.8-20.4-13.3-30.4-20.1
		c-2.5-1.7-4.2-1.6-6.7,0c-10.1,6.8-20.3,13.3-30.5,20c-4.7,3.1-9.5,4.1-14.4,0.8c-4.5-3.1-5.7-7.5-3.9-14.3
		c2.9-10.9,5.7-21.9,9-32.7c1.5-4.8,0.4-7.4-3.5-10.3c-8.6-6.3-16.8-13.2-24.9-20c-2.7-2.3-4.9-5.3-7.3-7.9C0,124.7,0,122.3,0,120z
		 M44.9,192.4c8.7-5.7,16.6-10.3,23.9-15.8c7.2-5.4,13.4-5,20.4,0.2c7.2,5.3,14.9,9.9,23.6,15.5c-2.8-10.3-5-19.3-7.7-28.1
		c-2.4-7.7-0.8-13.4,6-18.2c7.5-5.4,14.5-11.5,22.7-18.2c-11.6-0.6-21.7-1.3-31.8-1.7c-5.9-0.2-9.7-3-11.7-8.4c-1-2.6-2-5.3-3-7.9
		c-2.6-6.9-5.3-13.9-8.4-22c-4,10.4-7.6,19.5-10.8,28.7c-2.3,6.4-6.4,9.6-13.4,9.7c-9.7,0.2-19.4,1-30.6,1.6
		c8.8,7.1,16.5,13.4,24.3,19.6c4.9,3.8,6.6,8.4,4.8,14.5C50.3,171.7,47.8,181.5,44.9,192.4z"/>
	<path class="st0" d="M512,127c-2.6,2.8-4.8,5.8-7.7,8.3c-7.9,6.7-15.8,13.3-24.2,19.4c-4.3,3.1-5.5,5.9-3.8,11.1
		c3.3,10.3,5.8,20.8,8.7,31.2c2.1,7.6,1,12.1-3.6,15.2c-5.4,3.6-10.3,2-15.2-1.3c-9.7-6.5-19.6-12.7-29.2-19.3
		c-2.8-1.9-4.7-1.8-7.5,0.1c-9.8,6.6-19.8,12.9-29.6,19.5c-4.9,3.3-9.7,4.5-14.8,1c-4.5-3-5.7-7.8-3.8-14.7
		c3-11.2,5.9-22.5,9.3-33.7c1.1-3.7,0.2-5.7-2.7-7.9c-9.4-7.2-18.4-14.8-27.7-22.1c-4.5-3.5-6.8-7.7-5.1-13.5c1.5-5,5.4-7.7,12-8
		c12.1-0.6,24.3-1.2,36.4-1.7c3.1-0.1,4.6-1.2,5.7-4.2c4.1-11.3,8.4-22.4,12.7-33.6c2.5-6.5,6.2-9.6,11.5-9.4
		c6.2,0.2,9.4,4,11.4,9.5c4.1,11.2,8.5,22.4,12.6,33.6c1,2.8,2.4,3.9,5.4,4c11.2,0.4,22.3,1.3,33.4,1.4c6.8,0.1,12.3,1.9,15.8,8
		C512,122.3,512,124.7,512,127z M488,127.9c-11-0.6-20.6-1.4-30.2-1.6c-7.4-0.1-11.6-3.4-14-10.3c-3.1-9-6.7-17.9-10.6-28
		c-3.9,10.3-7.6,19.3-10.9,28.5c-2.3,6.5-6.4,9.6-13.3,9.8c-9.8,0.2-19.5,1-30.6,1.6c7.9,6.4,14.4,12.3,21.6,17.3
		c7.8,5.4,9.6,11.8,6.5,20.7c-2.8,8.3-4.7,16.9-7.3,26.6c8.3-5.5,15.9-9.7,22.7-15c7.9-6.1,14.8-5.9,22.5,0
		c6.9,5.3,14.4,9.6,22.6,15c-2.6-9.8-4.5-18.7-7.4-27.1c-3-8.6-1-14.6,6.3-19.8C473.3,140.3,480,134.3,488,127.9z"/>
	<path class="st0" d="M259,0c4.1,2.8,5.3,6.7,5.1,11.6c-0.3,8.1,0,16.3-0.1,24.5c-0.1,5.8-3.2,9.3-8.2,9.1c-4.8-0.1-7.7-3.4-7.7-9.1
		c-0.1-8.2,0.2-16.3-0.1-24.5c-0.2-4.9,1-8.8,5.1-11.6C255,0,257,0,259,0z"/>
	<path class="st0" d="M296,214.3c-1.2-0.5-3.9-1.4-6.2-2.9c-10-6.4-19.9-12.8-29.6-19.5c-3.1-2.2-5.3-2-8.4,0.1
		c-9.8,6.7-19.8,13-29.6,19.5c-4.7,3.1-9.5,4.1-14.4,0.7c-4.5-3-5.6-7.6-3.9-14.2c3-11.2,5.9-22.5,9.2-33.7c1.1-3.7,0.7-5.9-2.6-8.4
		c-9.4-7.2-18.5-14.7-27.7-22.1c-5.3-4.3-6.8-8.3-5.1-13.4c1.9-5.7,6.3-7.8,11.9-8.1c12-0.6,23.9-1.2,35.9-1.6
		c3.4-0.1,5.2-1.3,6.5-4.7c4-11.3,8.4-22.4,12.7-33.6c2.4-6.2,6-9,11.2-9c5.2,0,8.8,2.9,11.2,9c4.2,11,8.7,22,12.5,33.1
		c1.3,3.9,3.4,5,7.2,5.1c11.8,0.4,23.6,0.9,35.4,1.6c9.7,0.6,15.2,8.6,11.3,16.3c-1,2-2.8,3.7-4.6,5.2c-9.3,7.6-18.6,15.2-28,22.5
		c-2.6,2-3.3,3.8-2.4,7.1c3.5,12,6.7,24,9.8,36.1C310.5,207.5,305.4,214.3,296,214.3z M201.1,127.8c9,7.3,16.7,13.6,24.6,19.8
		c4.7,3.7,6.4,8.2,4.6,14.1c-2.1,7.2-3.9,14.4-5.9,21.7c-0.7,2.5-1.2,4.9-2.2,8.9c9.5-6.2,17.8-11.5,25.8-17
		c5.4-3.6,10.4-3.6,15.7,0c7,4.8,14.2,9.3,21.3,14c1.1,0.7,2.3,1.3,4.6,2.4c-2.8-10.4-5.1-19.6-7.8-28.6c-2-6.8-0.6-11.9,5.2-16.2
		c5.1-3.7,9.9-7.9,14.8-11.8c2.6-2.1,5.2-4.3,8.8-7.2c-11.4-0.6-21.4-1.3-31.3-1.6c-6.3-0.2-10.2-3.2-12.4-9
		c-2.1-5.8-4.3-11.5-6.5-17.3c-1.4-3.6-2.9-7.2-4.7-11.9c-4,10.6-7.6,19.9-11,29.2c-2.2,5.8-6.1,8.7-12.4,8.9
		C222.5,126.5,212.6,127.2,201.1,127.8z"/>
	<path class="st0" d="M344.3,49.6c-1.6,2.8-2.4,5.1-4,6.6c-10.5,9.7-21.2,19.3-31.9,28.8c-3.8,3.4-8.6,3.1-11.6-0.2
		c-3-3.3-2.8-8.2,0.9-11.6c10.6-9.7,21.3-19.2,31.9-28.7c2.7-2.4,6-3.6,9.1-1.4C341,44.5,342.3,47.2,344.3,49.6z"/>
	<path class="st0" d="M218.3,79.6c-1.9,2.4-3.1,5.5-5.2,6.4c-2.4,1-6.5,1.1-8.2-0.4c-11.7-9.9-23-20.2-34.2-30.7
		c-3-2.7-2.5-7.6,0.2-10.4c3-3.2,7.4-3.6,11.2-0.4c7.3,6.3,14.4,12.8,21.6,19.3c3.5,3.1,7.1,6.1,10.3,9.4
		C215.6,74.5,216.5,76.9,218.3,79.6z"/>
</g>
</svg>
