<?xml version="1.0" encoding="utf-8"?>
<!-- Generator: Adobe Illustrator 25.4.1, SVG Export Plug-In . SVG Version: 6.00 Build 0)  -->
<svg version="1.1" id="Layer_1" xmlns="http://www.w3.org/2000/svg" xmlns:xlink="http://www.w3.org/1999/xlink" x="0px" y="0px"
	 width="512px" height="512px" viewBox="0 0 512 512" style="enable-background:new 0 0 512 512;" xml:space="preserve">
<style type="text/css">
	.st0{fill:#000111;}
</style>
<g>
	<path class="st0" d="M512,73.2c0,28.7,0,57.3,0,86c-2.8,4.1-6.7,5.2-11.6,5.1c-9.8-0.3-19.7-0.1-29.5-0.1c-13.9,0-14.9-1-14.9-15.1
		c0-8.5,0-17.1,0-26.1c-6.8,2-12.8,4.1-18.9,5.5c-3.9,0.9-5.2,2.5-5.2,6.7c0.2,90.5,0.1,181,0.1,271.5c0,1.8,0,3.5,0,5.1
		c1.1,0.2,1.4,0.3,1.7,0.3c4,0,8,0,12,0c7.5,0.1,10.2,2.7,10.3,10.2c0,7.1,0,14.2,0,21.8c15.2,0,29.8,0.2,44.4-0.1
		c4.9-0.1,8.8,1,11.6,5.1c0,17,0,34,0,51c-170.7,0-341.3,0-512,0c0-17,0-34,0-51c2.8-4.1,6.7-5.5,11.6-5.1c4.1,0.3,8.2,0.1,12.4,0.1
		c0-2.8,0-4.8,0-6.8c0-58.2,0-116.4,0-174.5c0-8.2,2.6-10.7,10.8-10.7c4.3,0,8.6,0,13.2,0c0-2.3,0-4.1,0-5.9c0-24,0-48,0-72
		c0-7.2,2.8-10,9.9-10.1c9,0,18,0,27,0c8.5,0,11.1,2.5,11.1,10.9c0,23.8,0,47.7,0,71.5c0,1.8,0,3.5,0,5.1c8.4,0,16.1,0,24,0
		c0-26.1,0-51.7,0-77.4c0-7.5,2.7-10.2,10.3-10.2c8.8,0,17.7,0,26.5,0s11.2,2.4,11.2,11.3c0,42.2,0,84.3,0,126.5c0,1.9,0,3.9,0,6.2
		c2.4,0,4.2,0,6,0c36.8,0,73.7,0,110.5,0c9.2,0,11.5,2.3,11.5,11.5c0,39.5,0,79,0,118.5c0,1.9,0,3.8,0,5.8c11,0,21.3,0,32,0
		c0-7.4,0-14.5,0-21.6c0-7.4,2.8-10.1,10.3-10.2c7.1,0,14.2,0,21.3,0c0-93.7,0-186.8,0-279.8c-34.6,0-68.9,0-103.6,0
		c0,7.2,0.1,14.2,0,21.1c-0.1,2.8,0.6,4.3,3.3,5.8c8.5,4.6,12.8,12,12.7,21.6c-0.1,7.1-3.4,12.7-8.5,17.7c1.4,1.3,2.6,2.4,3.8,3.4
		c13.3,11.4,26.5,22.9,39.9,34.1c3.5,2.9,5.1,6.2,5,10.8c-0.2,9.2,0,18.3-0.1,27.5c0,6.8-2.9,9.6-9.8,9.7c-36.2,0-72.3,0-108.5,0
		c-6.8,0-9.6-2.9-9.6-9.8c0-9,0.2-18-0.1-27c-0.1-4.8,1.5-8.2,5.1-11.2c12.3-10.3,24.3-20.8,36.5-31.2c2.4-2,4.7-4.1,7-6.1
		c-13.2-16-11.2-29.6,5.6-40.5c0.8-0.5,1.8-1.6,1.8-2.5c0.1-7.8,0.1-15.6,0.1-23.7c-2.5,0-4.5,0-6.4,0c-55.8,0-111.7,0-167.5,0
		c-3.9,0-7.3-0.8-9.2-4.6c-1.9-3.9-0.3-7,2.2-10c12.5-15,24.9-30,37.5-44.8c1.8-2.1,4.7-3.9,7.3-4.5c16.1-3.6,32.2-6.8,48.4-10.1
		c57.5-11.6,115.2-23.7,173-35.3c25-5,49.8-12.7,75.9-10.5c5.5,0.4,11,0.3,16.5,0c4.6-0.3,8.3,1.1,12,3.7
		c24.7,17,49.5,33.9,74.2,50.9C506.8,68.6,509.3,71,512,73.2z M104,444c0-18,0-35.6,0-53.3c0-7.8,2.6-10.5,10.5-10.5
		c30.3,0,60.7,0,91,0c7.8,0,10.5,2.7,10.5,10.5c0,16,0,32,0,48c0,1.8,0,3.5,0,5.1c21.8,0,42.8,0,63.7,0c0-40,0-79.6,0-119.6
		c-2.1,0-3.9,0-5.7,0c-37,0-74-0.1-111,0.1c-5.5,0-8.9-2-11.6-6.8c-8.5-15.3-17.4-30.3-25.9-45.6c-1.6-2.9-3.4-3.8-6.6-3.8
		c-24.8,0.1-49.7,0.1-74.5,0.1c-1.4,0-2.9,0.2-4.2,0.3c0,58.7,0,117,0,175.5C61.4,444,82.3,444,104,444z M495.8,460.6
		c-160.1,0-319.8,0-479.5,0c0,8,0,15.6,0,23.4c159.9,0,319.6,0,479.5,0C495.8,476.1,495.8,468.5,495.8,460.6z M120.4,396.5
		c0,16.1,0,31.8,0,47.4c26.7,0,53.1,0,79.4,0c0-16,0-31.6,0-47.4C173.2,396.5,147,396.5,120.4,396.5z M185.6,67.6
		c1.4,0.4,1.8,0.5,2.1,0.5c49.6,0,99.3,0.1,148.9-0.1c1.5,0,3.6-1.5,4.4-2.9c5.9-9.9,11.5-19.9,17.2-29.9c0.5-0.9,0.8-1.9,1.4-3.5
		C301.4,43.7,244,55.6,185.6,67.6z M352.2,115.8c21.5,0,42.6,0,63.5,0c0-10.6,0-20.9,0-31.3c-21.3,0-42.3,0-63.5,0
		C352.2,95,352.2,105.3,352.2,115.8z M415.8,28.2c-7.1,0-13.7,0.8-20-0.2c-11.5-1.7-18.3,2.5-22.8,13.2c-3.9,9.2-9.7,17.6-14.9,26.6
		c19.7,0,38.7,0,57.7,0C415.8,54.5,415.8,41.6,415.8,28.2z M200.2,267.9c32.1,0,63.8,0,95.4,0c0-5.4,0-10.5,0-15.4
		c-32,0-63.6,0-95.4,0C200.2,257.6,200.2,262.6,200.2,267.9z M439.8,428.6c-32.1,0-63.8,0-95.4,0c0,5.4,0,10.5,0,15.4
		c32,0,63.6,0,95.4,0C439.8,438.8,439.8,433.9,439.8,428.6z M151.7,285.6c0-36,0-70.4,0-105.1c-5.3,0-10.3,0-15.4,0
		c-0.1,0.8-0.3,1.2-0.3,1.7c0,24.5,0,48.9,0,73.4c0,1.1,0,2.4,0.6,3.4C141.3,267.5,146.2,275.9,151.7,285.6z M432.5,84.4
		c0,9.8,0,19.2,0,28.9c21.5-6.5,42.4-12.7,63.3-19c0-3.5,0-6.6,0-9.9C474.6,84.4,453.7,84.4,432.5,84.4z M64.2,251.9
		c5.4,0,10.5,0,15.4,0c0-24.1,0-47.8,0-71.4c-5.3,0-10.2,0-15.4,0C64.2,204.3,64.2,227.9,64.2,251.9z M282.1,236
		c-11.8-10.1-22.8-19.5-34.1-29.2c-11.3,9.7-22.3,19.1-34,29.2C237,236,259,236,282.1,236z M376.3,402.6
		c11.9-10.2,23.2-19.9,34.8-29.8c-11.7-8.4-23.1-16.4-34.8-24.8C376.3,366.6,376.3,384.1,376.3,402.6z M415.6,196.3
		c0-18.4,0-36,0-54.4c-11.8,10.2-23.1,19.8-34.6,29.7C392.8,180.1,404,188,415.6,196.3z M410.2,212.2c-11.6-8.3-22.5-16.1-33.9-24.2
		c0,16.4,0,32.1,0,48.5C387.8,228.3,398.7,220.5,410.2,212.2z M376.3,316.5c11.6-8.3,22.5-16.1,33.9-24.3
		c-11.6-8.3-22.5-16.1-33.9-24.2C376.3,284.3,376.3,299.9,376.3,316.5z M415.7,276.4c0-16.4,0-32,0-48.4
		c-11.5,8.3-22.5,16.1-33.8,24.2C393.4,260.5,404.2,268.2,415.7,276.4z M415.8,307.9c-11.6,8.3-22.5,16.1-34,24.3
		c11.6,8.3,22.5,16.1,34,24.3C415.8,340,415.8,324.4,415.8,307.9z M472.2,147.9c8.2,0,15.7,0,23.6,0c0-12.3,0-24.4,0-36.9
		c-8,2.4-15.8,4.7-23.6,7.1C472.2,128.2,472.2,137.9,472.2,147.9z M478.4,68c-16-11.2-30.8-21.5-46-32.1c0,11.2,0,21.7,0,32.1
		C447.5,68,462.2,68,478.4,68z M166.5,84.6c-15.5,0-30,0-45.1,0c7.8,9.3,15.1,18.1,22.6,27.1C151.7,102.4,158.9,93.8,166.5,84.6z
		 M246.7,84.5c-15.5,0-30,0-45.3,0c7.8,9.3,15,18,22.7,27.2C231.6,102.5,238.9,93.8,246.7,84.5z M281.2,84.4
		c8,9.5,15.3,18.3,22.8,27.3c7.7-9.3,15-18,22.7-27.3C311.1,84.4,296.7,84.4,281.2,84.4z M81.4,115.9c15.3,0,29.8,0,45.3,0
		c-7.8-9.4-15.1-18.1-22.6-27.2C96.3,97.9,89.1,106.6,81.4,115.9z M206.7,116c-7.9-9.5-15.2-18.2-22.7-27.3
		c-7.7,9.2-15,18-22.7,27.3C176.6,116,191.1,116,206.7,116z M241.5,115.7c15.4,0,29.9,0,45.1,0c-7.8-9.3-15.1-18.1-22.6-27
		C256.3,98,249.1,106.6,241.5,115.7z M402,132.5c-9.3,0-17.4,0-25.7,0c0,7.3,0,14.3,0,22C385.1,147,393.2,140.1,402,132.5z
		 M415.8,389.8c-8.9,7.6-17,14.6-25.7,22.1c9.3,0,17.5,0,25.7,0C415.8,404.7,415.8,397.8,415.8,389.8z M256,180.1
		c-0.1-4.3-3.8-7.9-8.1-7.8c-4.3,0.1-7.9,3.8-7.8,8.1c0.1,4.3,3.8,7.9,8.1,7.8C252.5,188.1,256,184.4,256,180.1z M335.8,98.6
		c-5.2,6.3-9.6,11.6-14.4,17.4c5.4,0,9.8,0,14.4,0C335.8,110.4,335.8,105.2,335.8,98.6z"/>
	<path class="st0" d="M104,340.2c10.2,0,20.3,0,30.5,0c5.9,0,9.5,3.1,9.5,8c0,4.8-3.6,8-9.5,8c-20.3,0-40.7,0-61,0
		c-5.9,0-9.5-3.1-9.5-8s3.6-7.9,9.5-8C83.7,340.2,93.8,340.2,104,340.2z"/>
	<path class="st0" d="M215.5,356.2c-10,0-20,0-30,0c-5.9,0-9.5-3.1-9.5-7.9c0-4.9,3.5-8,9.4-8c20.3,0,40.7,0,61,0
		c5.9,0,9.5,3.1,9.5,7.9s-3.6,8-9.4,8C236.2,356.3,225.9,356.2,215.5,356.2z"/>
	<path class="st0" d="M87.5,316.2c-5,0-10,0.1-15,0c-5.1-0.1-8.5-3.4-8.5-8c0-4.5,3.3-7.9,8.5-8c10.3-0.1,20.7-0.1,31,0
		c5.1,0.1,8.5,3.4,8.5,7.9s-3.4,7.8-8.5,8C98.2,316.3,92.8,316.2,87.5,316.2z"/>
</g>
</svg>
