<?xml version="1.0" encoding="utf-8"?>
<!-- Generator: Adobe Illustrator 25.4.1, SVG Export Plug-In . SVG Version: 6.00 Build 0)  -->
<svg version="1.1" id="Layer_1" xmlns="http://www.w3.org/2000/svg" xmlns:xlink="http://www.w3.org/1999/xlink" x="0px" y="0px"
	 width="512px" height="512px" viewBox="0 0 512 512" style="enable-background:new 0 0 512 512;" xml:space="preserve">
<style type="text/css">
	.st0{fill:#000111;}
</style>
<g>
	<path class="st0" d="M353.3,370c9.6-4,19.1-7.4,28.1-11.7c25.3-12.1,50.4-24.4,75.6-36.9c6.5-3.2,12.9-5.8,20.3-5.5
		c16.3,0.7,26.8,15.5,20.6,30.6c-2.4,6-6.9,11.9-11.9,16c-10.6,8.7-21.6,16.9-33.3,23.9c-25.3,15.2-51,29.9-76.8,44.3
		c-30.5,17.1-63.7,21.3-98.1,18.8c-24.6-1.8-49.3-3.3-73.9-4c-15-0.4-30,1.7-44.3,8.1c3.8,12.2-1.3,21.2-10,29.2s-16.8,16.7-25.2,25
		c-5.4,5.4-8.4,5.4-13.7,0.2c-31.5-31.4-62.9-62.9-94.4-94.3c-5.4-5.4-5.4-8.3-0.1-13.7c9.5-9.6,19.2-19.1,28.7-28.7
		c7.1-7.2,15.3-9.3,25-6.8c1.5,0.4,3.9-0.9,5.2-2.1c12.6-12.5,24.6-25.6,37.7-37.6c12.1-11.2,26.2-19.8,42.4-24
		c14.7-3.8,29.3-2.3,43.4,2.8c16.7,6,33,12.9,49.6,19.1c23.2,8.6,47.2,13.6,71.9,13C340,335.3,354.6,347.9,353.3,370z M83.8,374.3
		c0.2,0.6,0.3,1,0.5,1.2c21.5,21.6,43,43.1,64.6,64.6c0.8,0.8,3.1,1.1,4.3,0.6c16.3-6.9,33.5-9.8,51-9.4c24.7,0.7,49.3,2.1,73.9,4
		c33.2,2.5,64.7-2.2,94.1-18.5c13.6-7.6,27.6-14.4,40.8-22.6c21.2-13.2,41.9-27.2,62.6-41.2c3.2-2.2,6-5.5,8-9
		c4.5-7.8,0.2-14.5-8.8-13.7c-3.7,0.3-7.5,2-10.9,3.6c-18.9,9.3-37.4,19.8-56.7,28.1c-25.8,11.2-52.1,21.6-78.6,31
		c-20.9,7.4-42.9,5.1-64.3,1.4c-12.2-2.1-24.1-6.2-36-9.8c-4.5-1.4-5.8-5.7-4.2-9.5c1.7-3.7,5.5-5.1,9.8-3.4
		c23.3,9.4,47.7,12.3,72.6,10.9c7.6-0.4,15.3-2.5,22.6-5c3.5-1.3,7.2-4.9,8.8-8.4c4.3-9.3-3-18.9-14-19
		c-28.7-0.3-56.5-5.1-83.3-15.2c-14.7-5.5-29.2-11.5-43.9-17.1c-22.7-8.7-43.7-5.1-63.4,8.8C114.3,340.1,98.8,357,83.8,374.3z
		 M117.9,494.3c7.8-7.8,15.8-15.9,23.8-23.9c6.8-6.8,6.7-10.6-0.2-17.5c-18.4-18.4-36.8-36.8-55.3-55.3
		c-5.6-5.6-11.2-11.3-16.9-16.8c-4.3-4.1-9.1-4.5-13.1-0.6c-9,8.7-17.7,17.6-26.3,26.2C59.4,435.8,88.6,465,117.9,494.3z"/>
	<path class="st0" d="M169.5,167c-2-19.8,5.3-34.4,20.5-45.5c10.6-7.7,15.4-18.2,13.3-31.3c-3-18.7,1.8-34.5,16.7-46.7
		c10.6-8.7,22.9-11.3,36.2-9.2c14.7,2.4,26-2.1,34.9-14.1c20.2-27,55.6-27,75.8,0c9,11.9,20.3,16.5,34.9,14.1
		c31.2-5.1,57.6,20.4,53.2,51.8c-2.2,15.9,2.4,27.6,15.3,37.4c26,19.7,25.1,54.9-1.4,74.9c-8.4,6.4-14,14.2-14.6,24.9
		c-0.2,3.3,0,6.8,0.7,10.1c5.4,28.1-18.7,58.9-54.5,52.9c-14-2.3-24.8,2.4-33.1,13.7c-12.5,17.1-29.2,23.4-49.8,19.1
		c-11.1-2.3-19.7-8.9-26.2-18c-8.8-12.2-20.1-17.1-35.1-14.7c-18.4,2.9-33.6-3.2-45.5-18.5c-12.1,16.1-27.7,25.9-47.6,27.8
		c-14.4,1.4-27.9-1.7-40.3-9.4c-24-14.8-35.8-43.7-29-70.7c4.2-16.6,13.5-29.7,27.9-39.1C136.3,167.1,152.1,164.3,169.5,167z
		 M409,271.7c19.9,1.5,35.3-15.4,32.2-35.1c-3.3-20.9,2.9-37.3,20-50.1c19-14.2,18.9-38.1-0.2-52.4c-16.7-12.6-23-28.7-19.9-49.2
		c3.4-22.4-14.3-39.9-36.8-36.5c-20.4,3.1-36.3-3.3-48.7-19.8c-14.5-19.3-38.2-19.2-52.8,0c-12.4,16.5-28.3,22.9-48.7,19.8
		c-22.8-3.5-39.6,14-36.9,37.1c0.8,6.6,0.8,13.6-0.3,20.1c-2,11.9-9.1,20.9-18.8,27.8c-11.7,8.4-16.7,19.7-13.8,33.9
		c0.5,2.5,2.6,5.5,4.9,6.8c26.5,15.5,38.7,45.2,30.7,74.9c-0.6,2.3-0.2,5.4,1,7.5c7.1,12.8,19.5,17.9,36,15.6
		c4.5-0.6,9.1-0.8,13.6-0.3c12.9,1.6,23.1,8,30.8,18.5c4.7,6.4,10.1,11.9,17.9,14.3c13.7,4.3,27,0.1,36.3-12.3
		c8.4-11.2,18.8-19,33-20.5C395.1,271.1,402.1,271.7,409,271.7z M106.6,231.2c0.1,28,22.7,50.5,50.7,50.5
		c27.9,0,50.7-22.8,50.7-50.6c0-27.9-23.3-51.1-51.2-50.9C129,180.4,106.5,203.3,106.6,231.2z"/>
	<path class="st0" d="M329.1,55.9c57.7-0.1,104.6,46.7,104.6,104.4c0,57.5-46.9,104.6-104.5,104.7c-57.5,0.1-104.6-47-104.6-104.5
		C224.6,102.8,271.4,56,329.1,55.9z M401.6,213.2c22.6-27.1,27.8-80-8.6-116.6c-35.4-35.6-93.4-35.3-128.4,0.8
		c-36.1,37.1-29.8,89.8-7.8,115.9c8.7-21.9,24-37.1,45.9-45.8c-17.6-20.5-18.5-42.4-2.7-59c14.4-15.1,37.9-16.8,54.3-3.7
		c8.4,6.7,13.4,15.5,14.9,26.2c2,14.5-3.4,26.3-13.7,36.5C377.8,176.2,392.9,191.4,401.6,213.2z M329.2,250.7
		c21.7-0.4,41-7.3,57.9-21.1c2.8-2.3,3.3-4.4,2.3-7.8c-8-26.6-32.5-44.8-60.4-44.8s-52.5,18.5-60.3,45c-0.9,3.2-0.6,5.2,2.1,7.4
		C287.9,243.4,307.3,250.4,329.2,250.7z M329.2,110.1c-14.3,0-26.2,11.7-26.4,26c-0.2,14.4,11.8,26.6,26.2,26.6
		c14.4,0,26.5-12,26.4-26.5C355.3,121.9,343.5,110.1,329.2,110.1z"/>
	<path class="st0" d="M147.4,237.6c9.8-9.8,18.9-19.1,28.2-28.1c1.7-1.7,4.3-3.6,6.3-3.5c2.2,0.1,5.1,1.9,6.4,3.8
		c2,2.9,0.7,6.1-1.8,8.7c-6.8,6.8-13.6,13.6-20.4,20.4c-4.8,4.8-9.5,9.6-14.4,14.3c-4.8,4.6-9.4,4-12.8-1.8c-4.1-7-8.2-14-12.1-21.1
		c-2.4-4.4-1.5-8.5,2.1-10.5c3.7-2.1,7.6-0.9,10.2,3.5C141.8,227.8,144.3,232.4,147.4,237.6z"/>
</g>
</svg>
