<svg xmlns="http://www.w3.org/2000/svg" width="44.406" height="31.923" viewBox="0 0 44.406 31.923">
  <g id="quotes" transform="translate(0 -72)">
    <path id="Path_3014" data-name="Path 3014" d="M0,72.442A1.084,1.084,0,0,1,1.006,72q8.365.013,16.73.009c.8,0,1,.2,1,1,0,5.247.009,10.494-.009,15.733a1.8,1.8,0,0,1-.269.919Q14.137,96.5,9.774,103.336c-.078.121-.139.295-.252.347a1.146,1.146,0,0,1-.7.173c-.2-.061-.356-.338-.477-.546a.987.987,0,0,1-.017-.425V89.754H7.788c-2.272,0-4.536-.009-6.808.009A.985.985,0,0,1,0,89.277Q0,80.846,0,72.442Zm1.422.971V88.331h7.32c.763,0,.971.217.971.989V100.8c.121-.173.173-.243.217-.312q3.63-5.7,7.251-11.4a1.264,1.264,0,0,0,.165-.642q.013-7.285.009-14.571v-.46Z" fill="#111"/>
    <path id="Path_3015" data-name="Path 3015" d="M314.551,89.359q-3.278,5.152-6.565,10.295-1.223,1.912-2.437,3.842c-.217.338-.46.616-.911.486s-.5-.486-.5-.893c.009-4.224,0-8.439,0-12.663v-.581h-7.294c-.85,0-1.041-.191-1.041-1.049V73.106c0-.8.2-1,1-1q8.365,0,16.73-.009a1.084,1.084,0,0,1,1.006.442Q314.56,80.933,314.551,89.359Zm-9.02,11.526c.113-.147.147-.2.191-.26q3.656-5.737,7.294-11.483a1.211,1.211,0,0,0,.147-.607q.013-7.285.009-14.571v-.451H297.248V88.423H304.6c.711,0,.937.234.937.937V91.7C305.531,94.719,305.531,97.737,305.531,100.886Z" transform="translate(-270.145 -0.091)" fill="#111"/>
  </g>
</svg>
