<?xml version="1.0" encoding="utf-8"?>
<!-- Generator: Adobe Illustrator 25.4.1, SVG Export Plug-In . SVG Version: 6.00 Build 0)  -->
<svg version="1.1" id="Layer_1" xmlns="http://www.w3.org/2000/svg" xmlns:xlink="http://www.w3.org/1999/xlink" x="0px" y="0px"
	 width="85px" height="110px" viewBox="0 0 85 110" style="enable-background:new 0 0 85 110;" xml:space="preserve">
<style type="text/css">
	.st0{fill-rule:evenodd;clip-rule:evenodd;fill:#FFFFFF;}
	.st1{fill:#FFFFFF;}
</style>
<g id="Group_2970" transform="translate(-2801.72 -388.365)">
	<path id="Path_3060" class="st0" d="M2811.6,446v19.4h9.5c5.4-0.2,9.6-4.7,9.4-10.1c-0.2-5.1-4.3-9.2-9.4-9.4H2811.6z
		 M2801.7,435.3h20.6c11.3,0,20.5,9.2,20.5,20.5c0,11.3-9.2,20.5-20.5,20.5h-20.6V435.3z"/>
	<path id="Path_3061" class="st0" d="M2843.9,435.3h42v10h-32.4v5.9h32.4v9.5h-32.4v5.9h32.4v9.6h-42V435.3z"/>
	<path id="Path_3062" class="st0" d="M2865.2,412.1l-5.5,11h11.1L2865.2,412.1z M2865.3,392.9l20.3,40.4h-40.2L2865.3,392.9z"/>
	<path id="Path_3063" class="st1" d="M2873.9,392.1h0.7c0.3,0,0.6,0,0.8-0.1c0.1,0,0.2-0.1,0.3-0.2c0.1-0.1,0.1-0.2,0.1-0.3
		c0-0.1,0-0.3-0.1-0.4c-0.1-0.1-0.2-0.2-0.3-0.2c-0.1,0-0.3,0-0.7,0h-0.7V392.1z M2873,394.7v-4.6h2c0.4,0,0.7,0,1.1,0.1
		c0.2,0.1,0.4,0.2,0.5,0.4c0.1,0.2,0.2,0.5,0.2,0.7c0,0.3-0.1,0.6-0.3,0.9c-0.2,0.2-0.6,0.4-0.9,0.4c0.2,0.1,0.4,0.2,0.5,0.4
		c0.2,0.2,0.4,0.5,0.5,0.7l0.6,0.9h-1.1l-0.7-1c-0.1-0.2-0.3-0.5-0.5-0.7c-0.1-0.1-0.2-0.1-0.3-0.2c-0.2,0-0.3-0.1-0.5-0.1h-0.2v1.9
		L2873,394.7z"/>
	<path id="Path_3064" class="st0" d="M2874.7,388.4c2.3,0,4.1,1.8,4.1,4.1s-1.8,4.1-4.1,4.1c-2.3,0-4.1-1.8-4.1-4.1
		C2870.6,390.2,2872.4,388.4,2874.7,388.4L2874.7,388.4 M2874.7,388.9c2,0,3.6,1.6,3.6,3.6s-1.6,3.6-3.6,3.6c-2,0-3.6-1.6-3.6-3.6
		C2871.1,390.5,2872.7,388.9,2874.7,388.9"/>
	<path id="Path_3065" class="st0" d="M2811.6,446v19.4h9.5c5.4-0.2,9.6-4.7,9.4-10.1c-0.2-5.1-4.3-9.2-9.4-9.4H2811.6z
		 M2801.7,435.3h20.6c11.3,0,20.5,9.2,20.5,20.5c0,11.3-9.2,20.5-20.5,20.5h-20.6V435.3z"/>
	<path id="Path_3066" class="st0" d="M2843.9,435.3h42v10h-32.4v5.9h32.4v9.5h-32.4v5.9h32.4v9.6h-42V435.3z"/>
	<path id="Path_3067" class="st0" d="M2865.2,412.1l-5.5,11h11.1L2865.2,412.1z M2865.3,392.9l20.3,40.4h-40.2L2865.3,392.9z"/>
	<path id="Path_3068" class="st0" d="M2842.5,432.5v-20.8l-0.9-1.4l-3.3-5c-0.4-0.6-0.9-1-1.5-1.3l-3.2-1.5V398
		c0-0.4-0.1-0.9-0.4-1.1l-8.4-8.2c-0.3-0.4-0.9-0.5-1.4-0.2l-8.1,4.6c-0.4,0.2-0.6,0.5-0.5,0.9v12.1l-3.7,2.6v8.2
		c0.1,0.5-0.2,1-0.5,1.3l-4.3,2.6c-0.3,0.2-0.4,0.5-0.4,0.8v10.7c0,0.1,0,0.1-0.1,0.1h-4.1v0.8h43.6l0.4-0.8L2842.5,432.5z
		 M2823.5,432.5h-7.4v-37.5c0-0.8,0.1-1,0.5-1.3l6.1-3.9c0.2-0.2,0.5-0.2,0.7,0c0.1,0.1,0.1,0.3,0.1,0.4L2823.5,432.5z
		 M2836.9,432.5h-7.4v-29.6c0-0.5,0.2-1,0.8-0.7l6.1,2.6c0.4,0.2,0.5,0.5,0.5,2L2836.9,432.5z"/>
	<path id="Path_3069" class="st1" d="M2873.9,392.1h0.7c0.3,0,0.6,0,0.8-0.1c0.1,0,0.2-0.1,0.3-0.2c0.1-0.1,0.1-0.2,0.1-0.3
		c0-0.1,0-0.3-0.1-0.4c-0.1-0.1-0.2-0.2-0.3-0.2c-0.1,0-0.3,0-0.7,0h-0.7V392.1z M2873,394.7v-4.6h2c0.4,0,0.7,0,1.1,0.1
		c0.2,0.1,0.4,0.2,0.5,0.4c0.1,0.2,0.2,0.5,0.2,0.7c0,0.3-0.1,0.6-0.3,0.9c-0.2,0.2-0.6,0.4-0.9,0.4c0.2,0.1,0.4,0.2,0.5,0.4
		c0.2,0.2,0.4,0.5,0.5,0.7l0.6,0.9h-1.1l-0.7-1c-0.1-0.2-0.3-0.5-0.5-0.7c-0.1-0.1-0.2-0.1-0.3-0.2c-0.2,0-0.3-0.1-0.5-0.1h-0.2v1.9
		L2873,394.7z"/>
	<rect id="Rectangle_615" x="2801.9" y="481.1" class="st1" width="2.4" height="10.3"/>
	<path id="Path_3070" class="st1" d="M2806.7,481.1h4.7c3.4,0,5.7,2,5.7,5.2s-2.3,5.2-5.7,5.2h-4.7V481.1z M2811.3,489.4
		c1.8,0.1,3.3-1.2,3.4-3c0.1-1.8-1.2-3.3-3-3.4c-0.1,0-0.3,0-0.4,0h-2.2v6.4H2811.3z"/>
	<path id="Path_3071" class="st1" d="M2826.9,489.5v1.9h-8v-10.3h7.8v1.9h-5.4v2.2h4.8v1.9h-4.8v2.4L2826.9,489.5z"/>
	<path id="Path_3072" class="st1" d="M2835.6,489.2h-4.8l-0.9,2.2h-2.4l4.6-10.3h2.4l4.6,10.3h-2.5L2835.6,489.2z M2834.9,487.4
		l-1.6-4l-1.6,4H2834.9z"/>
	<path id="Path_3073" class="st1" d="M2843.6,486.2c0.2-3.1,2.9-5.5,6-5.3c1.5,0.1,2.8,0.7,3.8,1.8l-1.5,1.4
		c-0.6-0.8-1.6-1.2-2.6-1.2c-1.8,0-3.3,1.5-3.3,3.3c0,1.8,1.5,3.3,3.3,3.3c1,0,2-0.4,2.6-1.2l1.5,1.4c-2.1,2.3-5.7,2.5-8,0.4
		C2844.4,489.1,2843.7,487.7,2843.6,486.2"/>
	<path id="Path_3074" class="st1" d="M2854.9,486.9v-5.8h2.4v5.7c0,2,0.9,2.8,2.3,2.8s2.3-0.8,2.3-2.8v-5.7h2.4v5.8
		c0,3-1.7,4.7-4.7,4.7S2854.9,489.9,2854.9,486.9"/>
	<path id="Path_3075" class="st1" d="M2876.1,488.6c0,1.8-1.4,2.8-4.1,2.8h-5.3v-10.3h5c2.6,0,3.9,1.1,3.9,2.7c0,1-0.5,1.8-1.4,2.3
		C2875.4,486.3,2876.1,487.4,2876.1,488.6 M2869,482.9v2.4h2.4c1.2,0,1.8-0.4,1.8-1.2s-0.6-1.2-1.8-1.2L2869,482.9z M2873.7,488.3
		c0-0.9-0.7-1.3-1.9-1.3h-2.8v2.6h2.8C2873,489.6,2873.7,489.2,2873.7,488.3"/>
	<path id="Path_3076" class="st1" d="M2885.9,489.5v1.9h-8v-10.3h7.8v1.9h-5.4v2.2h4.8v1.9h-4.8v2.4L2885.9,489.5z"/>
	<path id="Path_3077" class="st1" d="M2805.3,497.2c0,0.7-0.5,1.1-1.5,1.1h-2v-4h1.9c1,0,1.5,0.4,1.5,1.1c0,0.4-0.2,0.7-0.5,0.9
		C2805,496.3,2805.3,496.7,2805.3,497.2 M2802.6,494.9v1h0.9c0.4,0,0.7-0.2,0.7-0.5s-0.2-0.5-0.7-0.5H2802.6z M2804.4,497.1
		c0-0.3-0.2-0.5-0.7-0.5h-1v1h1C2804.1,497.6,2804.4,497.4,2804.4,497.1"/>
	<path id="Path_3078" class="st1" d="M2805.9,496.5v-2.3h0.9v2.2c0,0.8,0.3,1.1,0.9,1.1s0.9-0.3,0.9-1.1v-2.2h0.9v2.3
		c0.1,1-0.7,1.8-1.6,1.8c-1,0.1-1.8-0.7-1.8-1.6C2805.9,496.7,2805.9,496.6,2805.9,496.5"/>
	<rect id="Rectangle_616" x="2810.3" y="494.2" class="st1" width="0.9" height="4"/>
	<path id="Path_3079" class="st1" d="M2812.1,494.2h0.9v3.3h1.9v0.8h-2.8L2812.1,494.2z"/>
	<path id="Path_3080" class="st1" d="M2815.4,494.2h1.8c1.1,0,2.1,0.8,2.1,1.9c0,1.1-0.8,2.1-1.9,2.1c-0.1,0-0.1,0-0.2,0h-1.8V494.2
		z M2817.1,497.5c0.7,0,1.3-0.5,1.3-1.2s-0.5-1.3-1.2-1.3c0,0,0,0-0.1,0h-0.8v2.5H2817.1z"/>
	<rect id="Rectangle_617" x="2820" y="494.2" class="st1" width="0.9" height="4"/>
	<path id="Path_3081" class="st1" d="M2825.3,494.2v4h-0.7l-1.9-2.5v2.5h-0.9v-4h0.7l1.9,2.5v-2.5H2825.3z"/>
	<path id="Path_3082" class="st1" d="M2828.8,496.2h0.8v1.6c-0.4,0.3-1,0.5-1.6,0.5c-1.2,0-2.1-0.9-2.1-2.1s0.9-2.1,2.1-2.1
		c0,0,0.1,0,0.1,0c0.6,0,1.2,0.2,1.6,0.7l-0.6,0.6c-0.2-0.3-0.6-0.5-1-0.5c-0.7,0.1-1.2,0.7-1.2,1.4c0.1,0.6,0.5,1.1,1.2,1.2
		c0.2,0,0.5-0.1,0.7-0.2L2828.8,496.2z"/>
	<path id="Path_3083" class="st1" d="M2831.8,496.3c0-1.1,0.8-2.1,2-2.1c0,0,0.1,0,0.1,0c0.6,0,1.2,0.2,1.6,0.7l-0.6,0.6
		c-0.5-0.6-1.3-0.6-1.8-0.2s-0.6,1.3-0.2,1.8c0.5,0.6,1.3,0.6,1.8,0.2c0.1-0.1,0.1-0.1,0.2-0.2l0.6,0.6c-0.4,0.5-1,0.7-1.6,0.7
		c-1.1,0-2.1-0.8-2.1-2C2831.8,496.4,2831.8,496.3,2831.8,496.3"/>
	<path id="Path_3084" class="st1" d="M2835.7,496.3c0-1.2,0.9-2.1,2.1-2.1s2.1,0.9,2.1,2.1c0,1.2-0.9,2.1-2.1,2.1c0,0,0,0,0,0
		c-1.1,0-2.1-0.8-2.1-2C2835.7,496.4,2835.7,496.3,2835.7,496.3 M2839,496.3c-0.1-0.7-0.6-1.2-1.3-1.1s-1.2,0.6-1.1,1.3
		c0,0.6,0.6,1.1,1.2,1.1C2838.5,497.6,2839,497,2839,496.3C2839,496.3,2839,496.3,2839,496.3"/>
	<path id="Path_3085" class="st1" d="M2844.2,494.2v4h-0.7l-1.9-2.5v2.5h-0.9v-4h0.7l1.9,2.5v-2.5H2844.2z"/>
	<path id="Path_3086" class="st1" d="M2845.9,495h-1.2v-0.8h3.4v0.8h-1.2v3.3h-0.9V495z"/>
	<path id="Path_3087" class="st1" d="M2850.9,498.3l-0.7-1.1h-0.8v1.1h-0.9v-4h1.7c1,0,1.7,0.6,1.7,1.5c0,0.5-0.3,1.1-0.8,1.3
		l0.9,1.3L2850.9,498.3z M2850.1,495h-0.7v1.4h0.7c0.5,0,0.8-0.3,0.8-0.7S2850.6,495,2850.1,495"/>
	<path id="Path_3088" class="st1" d="M2855,497.4h-1.8l-0.3,0.9h-0.9l1.7-4h0.9l1.7,4h-0.9L2855,497.4z M2854.8,496.7l-0.6-1.6
		l-0.6,1.6H2854.8z"/>
	<path id="Path_3089" class="st1" d="M2856.4,496.3c0-1.1,0.8-2.1,2-2.1c0,0,0.1,0,0.1,0c0.6,0,1.2,0.2,1.6,0.7l-0.6,0.6
		c-0.5-0.6-1.3-0.6-1.8-0.2s-0.6,1.3-0.2,1.8c0.5,0.6,1.3,0.6,1.8,0.2c0.1-0.1,0.1-0.1,0.2-0.2l0.6,0.6c-0.4,0.5-1,0.7-1.6,0.7
		c-1.1,0-2.1-0.8-2.1-2C2856.4,496.4,2856.4,496.3,2856.4,496.3"/>
	<path id="Path_3090" class="st1" d="M2861.5,495h-1.2v-0.8h3.4v0.8h-1.2v3.3h-0.9V495z"/>
	<rect id="Rectangle_618" x="2864.1" y="494.2" class="st1" width="0.9" height="4"/>
	<path id="Path_3091" class="st1" d="M2869.4,494.2v4h-0.7l-1.9-2.5v2.5h-0.9v-4h0.7l1.9,2.5v-2.5H2869.4z"/>
	<path id="Path_3092" class="st1" d="M2872.9,496.2h0.8v1.6c-0.4,0.3-1,0.5-1.6,0.5c-1.2,0-2.1-0.9-2.1-2.1s0.9-2.1,2.1-2.1
		c0,0,0.1,0,0.1,0c0.6,0,1.2,0.2,1.6,0.7l-0.6,0.6c-0.2-0.3-0.6-0.5-1-0.5c-0.7,0.1-1.2,0.7-1.2,1.4c0.1,0.6,0.5,1.1,1.2,1.2
		c0.2,0,0.5-0.1,0.7-0.2L2872.9,496.2z"/>
	<path id="Path_3093" class="st1" d="M2876.1,494.2h0.9v3.3h1.9v0.8h-2.8V494.2z"/>
	<path id="Path_3094" class="st1" d="M2879.5,494.2h0.9v3.3h1.9v0.8h-2.8V494.2z"/>
	<path id="Path_3095" class="st1" d="M2882.5,496.3c0-1.1,0.8-2.1,2-2.1c0,0,0.1,0,0.1,0c0.6,0,1.2,0.2,1.6,0.7l-0.6,0.6
		c-0.5-0.6-1.3-0.6-1.8-0.2c-0.6,0.5-0.6,1.3-0.2,1.8c0.5,0.6,1.3,0.6,1.8,0.2c0.1-0.1,0.1-0.1,0.2-0.2l0.6,0.6
		c-0.4,0.5-1,0.7-1.6,0.7c-1.1,0-2.1-0.8-2.1-2C2882.5,496.4,2882.5,496.3,2882.5,496.3"/>
</g>
</svg>
