<?xml version="1.0" encoding="utf-8"?>
<!-- Generator: Adobe Illustrator 22.0.1, SVG Export Plug-In . SVG Version: 6.00 Build 0)  -->
<svg version="1.1" id="Layer_1" xmlns="http://www.w3.org/2000/svg" xmlns:xlink="http://www.w3.org/1999/xlink" x="0px" y="0px"
	 viewBox="0 0 512 512" style="enable-background:new 0 0 512 512;" xml:space="preserve">
<style type="text/css">
	.st0{fill:#370409;}
</style>
<g>
	<path class="st0" d="M26.3,512c-6.7,0-13.5-2.6-18.6-7.7c-10.3-10.3-10.3-27,0-37.3L467,7.7c10.3-10.3,27-10.3,37.3,0
		c10.3,10.3,10.3,27,0,37.3L45,504.3C39.8,509.4,33.1,512,26.3,512z"/>
	<path class="st0" d="M485.7,512c-6.7,0-13.5-2.6-18.6-7.7L7.7,45C-2.6,34.7-2.6,18,7.7,7.7s27-10.3,37.3,0L504.3,467
		c10.3,10.3,10.3,27,0,37.3C499.1,509.4,492.4,512,485.7,512z"/>
</g>
</svg>
