<?xml version="1.0" encoding="utf-8"?>
<!-- Generator: Adobe Illustrator 25.4.1, SVG Export Plug-In . SVG Version: 6.00 Build 0)  -->
<svg version="1.1" id="Layer_1" xmlns="http://www.w3.org/2000/svg" xmlns:xlink="http://www.w3.org/1999/xlink" x="0px" y="0px"
	 width="512px" height="512px" viewBox="0 0 512 512" style="enable-background:new 0 0 512 512;" xml:space="preserve">
<style type="text/css">
	.st0{fill:#FFFFFF;}
</style>
<g>
	<path class="st0" d="M470.3,235.4c0-6.8-5.5-12.2-12.2-12.2c-6.8,0-12.2,5.5-12.2,12.2c0,116.2-94.5,210.6-210.6,210.6
		c-116.2,0-210.7-94.5-210.7-210.6c0-116.2,94.5-210.6,210.7-210.6c40,0,78.9,11.3,112.5,32.5c5.7,3.6,13.3,1.9,16.9-3.8
		s1.9-13.3-3.8-16.9c-37.5-23.8-81-36.3-125.6-36.3C105.5,0.3,0,105.8,0,235.4c0,79,39.2,149,99.1,191.7l-46.2,65.3
		c-3.9,5.5-2.6,13.1,2.9,17.1c2.2,1.5,4.6,2.2,7.1,2.2c3.8,0,7.6-1.8,10-5.2l46.9-66.3c34.1,19.3,73.5,30.3,115.4,30.3
		s81.3-11,115.4-30.3l46.9,66.3c2.4,3.4,6.2,5.2,10,5.2c2.4,0,4.9-0.7,7.1-2.2c5.5-3.9,6.8-11.5,2.9-17.1l-46.2-65.3
		C431.1,384.4,470.3,314.4,470.3,235.4"/>
	<path class="st0" d="M317.2,109.8c3.2-5.9,1-13.4-4.9-16.6c-23.5-12.8-50.2-19.5-77.1-19.5c-89.2,0-161.8,72.6-161.8,161.8
		S146,397.2,235.2,397.2S397,324.6,397,235.4c0-6.8-5.5-12.2-12.2-12.2c-6.8,0-12.2,5.5-12.2,12.2c0,75.7-61.6,137.3-137.3,137.3
		S98,311.1,98,235.4S159.5,98.1,235.2,98.1c22.9,0,45.5,5.7,65.4,16.6C306.5,117.9,314,115.7,317.2,109.8"/>
	<path class="st0" d="M235.2,170.8c11.8,0,23.3,3.2,33.3,9.2c5.8,3.5,13.3,1.6,16.8-4.2s1.6-13.3-4.2-16.8
		c-13.8-8.3-29.7-12.7-45.9-12.7c-49.1,0-89.1,40-89.1,89.1s40,89.1,89.1,89.1s89.1-40,89.1-89.1c0-6.8-5.5-12.2-12.2-12.2
		c-6.8,0-12.2,5.5-12.2,12.2c0,35.6-29,64.6-64.6,64.6s-64.6-29-64.6-64.6S199.5,170.8,235.2,170.8"/>
	<path class="st0" d="M511.8,124.9c-0.8-5-4.7-9-9.7-10l-43.9-8.7l7.2-48.1c0.7-4.7-1.3-9.3-5.2-12c-3.9-2.6-9-2.8-13-0.4L354.3,100
		c-3.2,1.9-5.4,5.1-5.9,8.7l-7.9,52.4l-111.4,63.6c-5.9,3.4-7.9,10.8-4.6,16.7c2.3,4,6.4,6.2,10.7,6.2c2,0,4.1-0.5,6.1-1.6
		L352,182.8l52.6,10.4l2.4,0.2c2.2,0,4.3-0.6,6.2-1.7l92.9-54.3C510.4,135,512.7,129.9,511.8,124.9 M371.7,118.2l65.7-38.5
		l-4.3,28.5l-65.6,37.4L371.7,118.2z M404.7,168.4l-20.4-4l62.1-35.4l19.2,3.8L404.7,168.4z"/>
</g>
</svg>
