<?xml version="1.0" encoding="utf-8"?>
<!-- Generator: Adobe Illustrator 25.4.1, SVG Export Plug-In . SVG Version: 6.00 Build 0)  -->
<svg version="1.1" id="Layer_1" xmlns="http://www.w3.org/2000/svg" xmlns:xlink="http://www.w3.org/1999/xlink" x="0px" y="0px"
	 width="512px" height="512px" viewBox="0 0 512 512" style="enable-background:new 0 0 512 512;" xml:space="preserve">
<style type="text/css">
	.st0{fill:#FFFFFF;}
</style>
<g>
	<path class="st0" d="M483.5,230.4v-0.7v-1.3l-0.1-0.7l-0.3-1.3L483,226l-0.1-0.3l-0.5-1.1l-0.4-0.7l-0.6-0.9l-0.6-0.8l-0.1-0.1
		l-65-70.1c-0.9-1-2-1.8-3.2-2.3l-70.2-33.4c-1.4-0.7-2.9-1-4.5-1H174.2c-1.6,0-3.1,0.3-4.5,1l-70.2,33.4c-1.2,0.6-2.3,1.4-3.1,2.3
		l-65.2,70.2l-0.3,0.4l-0.6,0.7l-0.6,0.9l-0.4,0.7l-0.5,1.3l-0.1,0.4v0.2l-0.3,1.6v0.3c-0.1,1.3,0.1,2.7,0.5,3.9v0.1l0.8,1.7
		l0.2,0.3l0.7,1.1l217.2,272.3l0,0l0.4,0.4l0.2,0.2l1,0.9l0.1,0.1l0,0l0.4,0.3l1.3,0.8l0.1,0.1h0.1h0.1l0,0l1.8,0.6l0.2,0.1l0.4,0.1
		l1.9,0.2l0,0l0,0l0,0l1.9-0.2l0.3-0.1l0.3-0.1l1.8-0.6l0,0h0.1l0,0l0.4-0.2l1.2-0.7l0.4-0.3l0.3-0.2l0.9-0.8l0.3-0.3l0.3-0.3
		l0.2-0.1l217.2-272.3c0.8-1.1,1.4-2.2,1.8-3.5l0.1-0.4L483.5,230.4z M103.2,175.2l57,27.2l-17.3,44l-84.8-22.7L103.2,175.2z
		 M370.8,250.7l-18.9-48.3l57-27.2l45.5,49.1L370.8,250.7z M331.6,207.9l17.7,45.2H168l-4.8-1.3l17.2-43.9H331.6z M348.5,273.9
		L256,476.6l-92.7-203.2l0.6,0.2l2.7,0.4h181.9V273.9z M137.5,266.5l0.5,1.4l73.6,161.3l-145-181.7L137.5,266.5z M372.2,272
		l71.7-22.6L300.5,429.2L372.2,272z M335.6,136.1l53.6,25.5l-53.6,25.5h-159L123,161.6l53.6-25.5H335.6z"/>
	<path class="st0" d="M256,76.8c5.7,0,10.4-4.6,10.4-10.4v-56C266.4,4.7,261.8,0,256,0c-5.7,0-10.4,4.7-10.4,10.4v56
		C245.6,72.1,250.3,76.8,256,76.8"/>
	<path class="st0" d="M364,96c1.8,1.1,3.7,1.7,5.6,1.7c3.4,0,6.7-1.7,8.7-4.7l31.8-49c3.1-4.8,1.8-11.2-3.1-14.4
		c-4.8-3.1-11.2-1.8-14.4,3.1l-31.7,48.9C357.8,86.4,359.2,92.8,364,96"/>
	<path class="st0" d="M133.7,92.9c2,3.1,5.3,4.7,8.7,4.7c1.9,0,3.9-0.5,5.7-1.7c4.8-3.1,6.2-9.6,3.1-14.4l-31.7-48.9
		c-3.1-4.8-9.6-6.2-14.4-3.1s-6.2,9.6-3.1,14.4L133.7,92.9z"/>
</g>
</svg>
