<?xml version="1.0" encoding="utf-8"?>
<!-- Generator: Adobe Illustrator 25.4.1, SVG Export Plug-In . SVG Version: 6.00 Build 0)  -->
<svg version="1.1" id="Layer_1" xmlns="http://www.w3.org/2000/svg" xmlns:xlink="http://www.w3.org/1999/xlink" x="0px" y="0px"
	 width="512px" height="512px" viewBox="0 0 512 512" style="enable-background:new 0 0 512 512;" xml:space="preserve">
<style type="text/css">
	.st0{fill:#FFFFFF;}
</style>
<g>
	<path class="st0" d="M362.3,122.5C332,93,292,77.5,249.7,78.8c-80,2.3-145.9,66.7-150.1,146.6c-2.6,50,19.1,98.4,58.2,129.6
		c17.6,14,28.1,36.5,28.1,60.2v2.1c0,7.4,6,13.5,13.5,13.5h110c7.4,0,13.5-6,13.5-13.5v-2.1c0-23.5,11-46.1,30.1-61.8
		c35.9-29.6,56.4-73.2,56.4-119.6C409.3,191.4,392.6,151.9,362.3,122.5 M216.9,284.4h-16.3c-6.6,0-12-5.4-12-12s5.4-12,12-12h4.3
		c6.6,0,12,5.4,12,12V284.4z M266.9,403.8h-23.1v-92.5h23.1V403.8z M335.8,332.6c-22.3,18.4-36.2,43.8-39.2,71.2h-2.7v-92.5h16.3
		c21.5,0,38.9-17.5,38.9-38.9c0-21.5-17.5-38.9-38.9-38.9h-4.3c-21.5,0-38.9,17.5-38.9,38.9v12h-23.1v-12
		c0-21.5-17.5-38.9-38.9-38.9h-4.3c-21.5,0-38.9,17.5-38.9,38.9c0,21.5,17.5,38.9,38.9,38.9H217v92.5h-4.7
		c-2.9-27.8-16.2-52.8-37.6-69.9c-32.3-25.8-50.3-65.8-48.1-107.1c3.5-65.9,58-119.1,124-121.1c34.9-1,68,11.8,93.1,36.1
		s38.9,57,38.9,91.9C382.4,272.1,365.4,308.1,335.8,332.6 M293.9,284.4v-12c0-6.6,5.4-12,12-12h4.3c6.6,0,12,5.4,12,12
		s-5.4,12-12,12H293.9z"/>
	<path class="st0" d="M300.2,443.8h-89.7c-7.4,0-13.5,6-13.5,13.5c0,7.4,6,13.5,13.5,13.5h89.7c7.4,0,13.5-6,13.5-13.5
		C313.7,449.9,307.7,443.8,300.2,443.8"/>
	<path class="st0" d="M281.4,483.9h-52c-7.4,0-13.5,6-13.5,13.5c0,7.4,6,13.5,13.5,13.5h52c7.4,0,13.5-6,13.5-13.5
		C294.8,489.9,288.8,483.9,281.4,483.9"/>
	<path class="st0" d="M255.4,59.7c7.4,0,13.5-6,13.5-13.5v-34c0-7.4-6-13.5-13.5-13.5c-7.4,0-13.5,6-13.5,13.5v34
		C241.9,53.7,248,59.7,255.4,59.7"/>
	<path class="st0" d="M391.1,109c3.7,0,7.3-1.5,10-4.5l22.7-25.2c5-5.5,4.5-14-1-19s-14-4.5-19,1l-22.7,25.3c-5,5.5-4.5,14,1,19
		C384.7,107.9,387.9,109,391.1,109"/>
	<path class="st0" d="M476,218h-34c-7.4,0-13.5,6-13.5,13.5c0,7.4,6,13.5,13.5,13.5h34c7.4,0,13.5-6,13.5-13.5S483.4,218,476,218"/>
	<path class="st0" d="M422.2,372.2l-27.5-20c-6-4.4-14.4-3-18.8,3s-3,14.4,3,18.8l27.5,20c2.4,1.7,5.1,2.6,7.9,2.6
		c4.2,0,8.3-1.9,10.9-5.6C429.6,385,428.3,376.6,422.2,372.2"/>
	<path class="st0" d="M109.7,104.5c2.7,3,6.3,4.5,10,4.5c3.2,0,6.4-1.1,9-3.5c5.5-5,6-13.5,1-19L107,61.3c-5-5.5-13.5-6-19-1
		s-6,13.5-1,19L109.7,104.5z"/>
	<path class="st0" d="M68.8,218h-34c-7.4,0-13.5,6-13.5,13.5c0,7.4,6,13.5,13.5,13.5h34c7.4,0,13.5-6,13.5-13.5
		C82.2,224,76.2,218,68.8,218"/>
	<path class="st0" d="M116,352.3l-27.5,20c-6,4.4-7.4,12.8-3,18.8c2.6,3.6,6.7,5.5,10.9,5.5c2.7,0,5.5-0.8,7.9-2.6l27.5-20
		c6-4.4,7.3-12.8,3-18.8C130.5,349.2,122.1,347.9,116,352.3"/>
</g>
</svg>
